<?xml version="1.0" encoding="utf-8"?>
<!-- Generator: Adobe Illustrator 16.0.0, SVG Export Plug-In . SVG Version: 6.00 Build 0)  -->
<!DOCTYPE svg PUBLIC "-//W3C//DTD SVG 1.1//EN" "http://www.w3.org/Graphics/SVG/1.1/DTD/svg11.dtd">
<svg version="1.1" id="Layer_1" xmlns="http://www.w3.org/2000/svg" xmlns:xlink="http://www.w3.org/1999/xlink" x="0px" y="0px"
	 width="48px" height="48px" viewBox="0 0 48 48" enable-background="new 0 0 48 48" xml:space="preserve">
<path fill="#414042" d="M25.002,6.356c-8.297,0-15.595,5.528-17.862,13.475L5.409,9.636C5.362,9.364,5.101,9.184,4.832,9.227
	C4.561,9.273,4.377,9.531,4.423,9.804l1.898,11.184c0.022,0.131,0.096,0.247,0.204,0.324c0.085,0.06,0.187,0.092,0.289,0.092
	c0.028,0,0.056-0.002,0.084-0.007l11.182-1.9c0.272-0.047,0.455-0.305,0.409-0.577c-0.047-0.272-0.31-0.453-0.577-0.409
	l-9.836,1.671c2.121-7.559,9.049-12.825,16.926-12.825c9.696,0,17.584,7.888,17.584,17.582c0,6.725-3.742,12.763-9.768,15.758
	c-0.247,0.122-0.348,0.423-0.225,0.67c0.087,0.176,0.264,0.277,0.447,0.277c0.075,0,0.151-0.017,0.223-0.053
	c6.367-3.164,10.322-9.545,10.322-16.652C43.586,14.692,35.249,6.356,25.002,6.356z"/>
</svg>
