<?xml version="1.0" encoding="utf-8"?>
<!-- Generator: Adobe Illustrator 16.0.0, SVG Export Plug-In . SVG Version: 6.00 Build 0)  -->
<!DOCTYPE svg PUBLIC "-//W3C//DTD SVG 1.1//EN" "http://www.w3.org/Graphics/SVG/1.1/DTD/svg11.dtd">
<svg version="1.1" id="Layer_1" xmlns="http://www.w3.org/2000/svg" xmlns:xlink="http://www.w3.org/1999/xlink" x="0px" y="0px"
	 width="48px" height="48px" viewBox="0 0 48 48" enable-background="new 0 0 48 48" xml:space="preserve">
<g>
	<path fill="#414042" d="M15.157,10.548H7.443c-0.276,0-0.5,0.224-0.5,0.5v24.856c0,0.276,0.224,0.5,0.5,0.5h7.714
		c0.276,0,0.5-0.224,0.5-0.5V11.048C15.657,10.771,15.434,10.548,15.157,10.548z"/>
	<path fill="#414042" d="M40.29,10.609c-0.159-0.087-0.355-0.082-0.509,0.017L17.837,24.553c-0.152,0.097-0.241,0.268-0.231,0.447
		c0.009,0.181,0.114,0.342,0.276,0.422l21.944,10.93c0.07,0.035,0.146,0.053,0.223,0.053c0.092,0,0.183-0.025,0.264-0.075
		c0.146-0.091,0.236-0.252,0.236-0.425V11.048C40.549,10.865,40.449,10.697,40.29,10.609z"/>
</g>
</svg>
