<?xml version="1.0" encoding="utf-8"?>
<!-- Generator: Adobe Illustrator 16.0.0, SVG Export Plug-In . SVG Version: 6.00 Build 0)  -->
<!DOCTYPE svg PUBLIC "-//W3C//DTD SVG 1.1//EN" "http://www.w3.org/Graphics/SVG/1.1/DTD/svg11.dtd">
<svg version="1.1" id="Layer_1" xmlns="http://www.w3.org/2000/svg" xmlns:xlink="http://www.w3.org/1999/xlink" x="0px" y="0px"
	 width="48px" height="48px" viewBox="0 0 48 48" enable-background="new 0 0 48 48" xml:space="preserve">
<g>
	<path fill="#414042" d="M44.145,33.609c-0.277,0-0.5,0.223-0.5,0.5v7.361H3.42c0.001-0.014,0.008-0.026,0.008-0.041v-7.32
		c0-0.277-0.225-0.5-0.5-0.5c-0.277,0-0.5,0.223-0.5,0.5v7.32c0,0.102,0.038,0.191,0.09,0.27c-0.052,0.08-0.09,0.169-0.09,0.271
		c0,0.275,0.223,0.5,0.5,0.5h41.217c0.275,0,0.5-0.225,0.5-0.5v-7.861C44.645,33.832,44.42,33.609,44.145,33.609z"/>
	<path fill="#414042" d="M23.219,33.49c0.092,0.076,0.203,0.113,0.316,0.113c0.111,0,0.223-0.037,0.316-0.113l13.758-11.225
		c0.213-0.174,0.244-0.49,0.07-0.703c-0.176-0.215-0.49-0.244-0.703-0.072L24.035,32.049V5.037c0-0.277-0.225-0.5-0.5-0.5
		c-0.277,0-0.5,0.223-0.5,0.5v27.012L10.094,21.49c-0.215-0.174-0.527-0.143-0.703,0.072c-0.174,0.213-0.143,0.529,0.072,0.703
		L23.219,33.49z"/>
</g>
</svg>
