<?xml version="1.0" encoding="utf-8"?>
<!-- Generator: Adobe Illustrator 16.0.0, SVG Export Plug-In . SVG Version: 6.00 Build 0)  -->
<!DOCTYPE svg PUBLIC "-//W3C//DTD SVG 1.1//EN" "http://www.w3.org/Graphics/SVG/1.1/DTD/svg11.dtd">
<svg version="1.1" id="Layer_1" xmlns="http://www.w3.org/2000/svg" xmlns:xlink="http://www.w3.org/1999/xlink" x="0px" y="0px"
	 width="48px" height="48px" viewBox="0 0 48 48" enable-background="new 0 0 48 48" xml:space="preserve">
<g>
	<path fill="#414042" d="M40.684,10.872h-7.715c-0.275,0-0.5,0.224-0.5,0.5v24.856c0,0.276,0.225,0.5,0.5,0.5h7.715
		c0.275,0,0.5-0.224,0.5-0.5V11.372C41.184,11.096,40.959,10.872,40.684,10.872z"/>
	<path fill="#414042" d="M8.346,10.95c-0.154-0.098-0.35-0.104-0.509-0.017c-0.16,0.088-0.259,0.256-0.259,0.438v24.856
		c0,0.173,0.089,0.334,0.237,0.425c0.081,0.05,0.172,0.075,0.263,0.075c0.076,0,0.152-0.018,0.223-0.053l21.944-10.93
		c0.161-0.08,0.267-0.241,0.276-0.422c0.01-0.18-0.079-0.351-0.231-0.447L8.346,10.95z"/>
</g>
</svg>
