<?xml version="1.0" encoding="utf-8"?>
<!-- Generator: Adobe Illustrator 16.0.0, SVG Export Plug-In . SVG Version: 6.00 Build 0)  -->
<!DOCTYPE svg PUBLIC "-//W3C//DTD SVG 1.1//EN" "http://www.w3.org/Graphics/SVG/1.1/DTD/svg11.dtd">
<svg version="1.1" id="Layer_1" xmlns="http://www.w3.org/2000/svg" xmlns:xlink="http://www.w3.org/1999/xlink" x="0px" y="0px"
	 width="48px" height="48px" viewBox="0 0 48 48" enable-background="new 0 0 48 48" xml:space="preserve">
<path fill="#414042" d="M43.169,9.227c-0.265-0.042-0.53,0.138-0.577,0.409l-1.73,10.197c-2.268-7.947-9.565-13.477-17.863-13.477
	c-10.247,0-18.583,8.336-18.583,18.582c0,7.107,3.955,13.488,10.322,16.652c0.071,0.036,0.147,0.053,0.223,0.053
	c0.184,0,0.36-0.102,0.447-0.277c0.123-0.247,0.022-0.548-0.225-0.67c-6.025-2.995-9.768-9.033-9.768-15.758
	c0-9.694,7.888-17.582,17.583-17.582c7.877,0,14.805,5.266,16.926,12.825l-9.836-1.671c-0.267-0.043-0.53,0.137-0.577,0.409
	c-0.046,0.272,0.137,0.53,0.409,0.577l11.183,1.9c0.028,0.005,0.056,0.007,0.084,0.007c0.103,0,0.204-0.032,0.289-0.092
	c0.108-0.077,0.182-0.193,0.204-0.324l1.898-11.184C43.624,9.531,43.44,9.273,43.169,9.227z"/>
</svg>
