<?xml version="1.0" encoding="utf-8"?>
<!-- Generator: Adobe Illustrator 16.0.0, SVG Export Plug-In . SVG Version: 6.00 Build 0)  -->
<!DOCTYPE svg PUBLIC "-//W3C//DTD SVG 1.1//EN" "http://www.w3.org/Graphics/SVG/1.1/DTD/svg11.dtd">
<svg version="1.1" id="Layer_1" xmlns="http://www.w3.org/2000/svg" xmlns:xlink="http://www.w3.org/1999/xlink" x="0px" y="0px"
	 width="48px" height="48px" viewBox="0 0 48 48" enable-background="new 0 0 48 48" xml:space="preserve">
<path fill="#414042" d="M43.005,21.622c-0.018,0-0.035,0-0.054,0.001c-0.827,0.028-1.476,0.723-1.446,1.551
	c0.345,9.885-7.417,18.207-17.302,18.553c-4.788,0.157-9.354-1.54-12.858-4.808s-5.526-7.704-5.693-12.492
	C5.307,14.543,13.067,6.22,22.952,5.874c6.426-0.221,12.405,3.006,15.782,8.351l-7.122,0.25c-0.828,0.028-1.476,0.724-1.446,1.552
	c0.028,0.81,0.694,1.447,1.498,1.447c0.018,0,0.035-0.001,0.054-0.001l10.461-0.367c0.828-0.028,1.476-0.724,1.446-1.551
	L43.25,4.824c-0.028-0.828-0.692-1.464-1.552-1.447c-0.827,0.029-1.476,0.724-1.446,1.552l0.228,6.53
	c-4.039-5.54-10.586-8.834-17.633-8.583C11.31,3.279,2.251,12.994,2.653,24.531c0.195,5.589,2.556,10.768,6.646,14.582
	c3.907,3.643,8.945,5.624,14.26,5.624c0.249,0,0.499-0.004,0.75-0.013c11.537-0.403,20.597-10.118,20.194-21.655
	C44.475,22.26,43.81,21.622,43.005,21.622z"/>
</svg>
