<?xml version="1.0" encoding="utf-8"?>
<!-- Generator: Adobe Illustrator 16.0.0, SVG Export Plug-In . SVG Version: 6.00 Build 0)  -->
<!DOCTYPE svg PUBLIC "-//W3C//DTD SVG 1.1//EN" "http://www.w3.org/Graphics/SVG/1.1/DTD/svg11.dtd">
<svg version="1.1" id="Layer_1" xmlns="http://www.w3.org/2000/svg" xmlns:xlink="http://www.w3.org/1999/xlink" x="0px" y="0px"
	 width="48px" height="48px" viewBox="0 0 48 48" enable-background="new 0 0 48 48" xml:space="preserve">
<g>
	<path fill="#414042" d="M21.814,10.49h-7.95c-0.276,0-0.5,0.224-0.5,0.5v25.619c0,0.276,0.224,0.5,0.5,0.5h7.95
		c0.276,0,0.5-0.224,0.5-0.5V10.99C22.314,10.714,22.091,10.49,21.814,10.49z"/>
	<path fill="#414042" d="M34.54,10.49h-7.952c-0.276,0-0.5,0.224-0.5,0.5v25.619c0,0.276,0.224,0.5,0.5,0.5h7.952
		c0.276,0,0.5-0.224,0.5-0.5V10.99C35.04,10.714,34.816,10.49,34.54,10.49z"/>
</g>
</svg>
