<?xml version="1.0" encoding="utf-8"?>
<!-- Generator: Adobe Illustrator 16.0.0, SVG Export Plug-In . SVG Version: 6.00 Build 0)  -->
<!DOCTYPE svg PUBLIC "-//W3C//DTD SVG 1.1//EN" "http://www.w3.org/Graphics/SVG/1.1/DTD/svg11.dtd">
<svg version="1.1" id="Layer_1" xmlns="http://www.w3.org/2000/svg" xmlns:xlink="http://www.w3.org/1999/xlink" x="0px" y="0px"
	 width="48px" height="48px" viewBox="0 0 48 48" enable-background="new 0 0 48 48" xml:space="preserve">
<path fill="#414042" d="M37.227,3.396l-4.502,4.502l4.262,4.262c0.24,0.241,0.24,0.631,0,0.872
	c-0.121,0.121-0.279,0.181-0.438,0.181c-0.156,0-0.314-0.06-0.436-0.181l-4.262-4.261l-3.275,3.276l1.941,1.94
	c0.242,0.241,0.242,0.631,0,0.873c-0.119,0.121-0.277,0.181-0.436,0.181s-0.316-0.06-0.436-0.181l-1.941-1.94l-2.574,2.577
	l4.258,4.261c0.242,0.241,0.242,0.631,0,0.873c-0.121,0.121-0.277,0.181-0.436,0.181s-0.316-0.06-0.438-0.181l-4.257-4.261
	l-2.932,2.931l2.503,2.504c0.241,0.241,0.241,0.631,0,0.873c-0.121,0.12-0.278,0.181-0.436,0.181c-0.158,0-0.316-0.061-0.437-0.181
	l-2.503-2.504l-3.331,3.331l4.261,4.262c0.241,0.24,0.241,0.631,0,0.871c-0.121,0.121-0.278,0.182-0.437,0.182
	c-0.158,0-0.315-0.061-0.436-0.182l-4.261-4.26l-3.35,3.35l1.939,1.939c0.241,0.242,0.241,0.633,0,0.873
	c-0.121,0.121-0.28,0.18-0.437,0.18c-0.159,0-0.315-0.059-0.436-0.18l-1.939-1.939l-3.521,3.52l4.261,4.262
	c0.241,0.242,0.241,0.631,0,0.873c-0.121,0.121-0.278,0.18-0.436,0.18c-0.158,0-0.316-0.059-0.437-0.18L7.634,32.99l-4.061,4.061
	l7.628,7.629l33.654-33.656L37.227,3.396z"/>
</svg>
