<?xml version="1.0" encoding="utf-8"?>
<!-- Generator: Adobe Illustrator 16.0.0, SVG Export Plug-In . SVG Version: 6.00 Build 0)  -->
<!DOCTYPE svg PUBLIC "-//W3C//DTD SVG 1.1//EN" "http://www.w3.org/Graphics/SVG/1.1/DTD/svg11.dtd">
<svg version="1.1" id="Layer_1" xmlns="http://www.w3.org/2000/svg" xmlns:xlink="http://www.w3.org/1999/xlink" x="0px" y="0px"
	 width="48px" height="48px" viewBox="0 0 48 48" enable-background="new 0 0 48 48" xml:space="preserve">
<g>
	<path fill="#414042" d="M10.883,15.935L23.499,5.638v28.911c0,0.276,0.224,0.5,0.5,0.5s0.5-0.224,0.5-0.5V5.638l12.617,10.297
		c0.093,0.075,0.205,0.112,0.316,0.112c0.145,0,0.288-0.063,0.388-0.184c0.174-0.214,0.143-0.529-0.071-0.704L24.315,4.196
		c-0.008-0.007-0.02-0.004-0.028-0.01c-0.082-0.059-0.176-0.101-0.285-0.102c-0.002,0-0.004,0-0.006,0
		c-0.109,0.001-0.204,0.042-0.285,0.102c-0.009,0.006-0.02,0.003-0.028,0.01L10.25,15.159c-0.214,0.175-0.245,0.49-0.071,0.704
		C10.355,16.077,10.67,16.107,10.883,15.935z"/>
	<path fill="#414042" d="M44.608,35.055c-0.276,0-0.5,0.224-0.5,0.5v7.361H3.892v-7.361c0-0.276-0.224-0.5-0.5-0.5
		s-0.5,0.224-0.5,0.5v7.861c0,0.276,0.224,0.5,0.5,0.5h41.217c0.276,0,0.5-0.224,0.5-0.5v-7.861
		C45.108,35.278,44.885,35.055,44.608,35.055z"/>
</g>
</svg>
