<?xml version="1.0" encoding="utf-8"?>
<!-- Generator: Adobe Illustrator 16.0.0, SVG Export Plug-In . SVG Version: 6.00 Build 0)  -->
<!DOCTYPE svg PUBLIC "-//W3C//DTD SVG 1.1//EN" "http://www.w3.org/Graphics/SVG/1.1/DTD/svg11.dtd">
<svg version="1.1" id="Layer_1" xmlns="http://www.w3.org/2000/svg" xmlns:xlink="http://www.w3.org/1999/xlink" x="0px" y="0px"
	 width="48px" height="48px" viewBox="0 0 48 48" enable-background="new 0 0 48 48" xml:space="preserve">
<path fill="#414042" d="M38.634,26.658c-0.214-0.176-0.528-0.146-0.704,0.065c-0.177,0.213-0.147,0.528,0.065,0.704l5.417,4.494
	h-9.369c-0.008,0-0.016,0-0.024,0c-4.849,0-9.084-7.199-9.14-7.295c-0.221-0.337-0.447-0.696-0.686-1.073
	c-0.057-0.089-0.117-0.184-0.175-0.275c0.058-0.091,0.118-0.186,0.175-0.275c0.238-0.377,0.465-0.736,0.699-1.096
	c0.042-0.073,4.271-7.272,9.129-7.272c0.008,0,0.017,0,0.024,0h9.366l-5.417,4.494c-0.213,0.176-0.242,0.491-0.065,0.704
	c0.099,0.119,0.241,0.181,0.385,0.181c0.112,0,0.226-0.038,0.319-0.115l6.484-5.379c0.114-0.095,0.181-0.235,0.181-0.384
	s-0.065-0.289-0.179-0.384l-6.484-5.432c-0.212-0.18-0.527-0.151-0.704,0.062c-0.178,0.212-0.15,0.527,0.062,0.704l5.43,4.549
	h-9.374c-0.011,0-0.021,0-0.03,0c-5.424,0-9.807,7.453-9.978,7.748c-0.197,0.303-0.404,0.63-0.617,0.967
	c-1.165-1.792-2.605-3.796-4.64-5.518c-0.134-0.132-3.307-3.224-6.992-3.224H3.01c-0.276,0-0.5,0.224-0.5,0.5s0.224,0.5,0.5,0.5
	h8.782c3.271,0,6.26,2.906,6.317,2.961c2.097,1.775,3.554,3.88,4.725,5.708c-1.172,1.83-2.631,3.936-4.752,5.734
	c-0.03,0.029-3.02,2.936-6.29,2.936H3.01c-0.276,0-0.5,0.224-0.5,0.5s0.224,0.5,0.5,0.5h8.782c3.686,0,6.858-3.092,6.964-3.197
	c2.057-1.742,3.502-3.751,4.667-5.544c0.214,0.337,0.419,0.661,0.604,0.944c0.185,0.317,4.566,7.771,9.988,7.771
	c0.011,0,0.021,0,0.03,0h9.377l-5.43,4.549c-0.212,0.177-0.239,0.492-0.062,0.704c0.099,0.118,0.24,0.179,0.383,0.179
	c0.113,0,0.228-0.038,0.321-0.117l6.484-5.432c0.113-0.095,0.179-0.235,0.179-0.384s-0.066-0.289-0.181-0.384L38.634,26.658z"/>
</svg>
