<?xml version="1.0" encoding="utf-8"?>
<!-- Generator: Adobe Illustrator 16.0.0, SVG Export Plug-In . SVG Version: 6.00 Build 0)  -->
<!DOCTYPE svg PUBLIC "-//W3C//DTD SVG 1.1//EN" "http://www.w3.org/Graphics/SVG/1.1/DTD/svg11.dtd">
<svg version="1.1" id="Layer_1" xmlns="http://www.w3.org/2000/svg" xmlns:xlink="http://www.w3.org/1999/xlink" x="0px" y="0px"
	 width="1024px" height="1024px" viewBox="0 0 1024 1024" enable-background="new 0 0 1024 1024" xml:space="preserve">
<g>
	<path fill="#414042" d="M348.438,401.583c8.938,51.854,30.5,96.563,59.708,127.625c4.584,4.729,43.375,43.167,95.709,44.125
		c34.041,0.646,67.625-15.104,99-46.813l0.666-0.813c-0.104,0.104-0.208,0.188-0.333,0.292c0.208-0.209,0.375-0.375,0.563-0.604
		l12.396-15.625c21.542-29.896,37.209-68.229,44.209-111.333c0,0,5.771,1,11.104-11.563c27.604-64.875-7.333-99.5-7.333-99.5
		c-3.208-3.438-6.229-4.396-6.229-4.396c-19.563-94.291-81.041-163.146-153.791-163.146c-77.479,0-142.063,77.979-157.042,181.708
		c0,0-3.208-7.541-11.854,0c0,0-25.75,40.948,5.771,96.896C344.021,403.854,348.438,401.583,348.438,401.583z"/>
	<path fill="#414042" d="M641.479,629.479c-12.292-24.229-18.813-33.208-22.125-64c-35.875,36.042-73.792,53.896-113.5,53.896
		c-0.896,0-1.792,0-2.688-0.021c-46.104-0.938-82-25.438-100.042-40.666c-3.354,25.458-9.458,28.791-20.604,50.791
		c0,0-315.958,27.771-320.271,166.438v108.25h899.479v-108.25C957.438,657.25,641.479,629.479,641.479,629.479z"/>
</g>
</svg>
